:version 1.10
:name ASF
:units
  mass 1
  length 1
  angle deg
:documentation
  ASF file generated by Kaydara
:root
  axis xyz
  order  tx ty tz rx ry rz
  position 0 0 0
  orientation 0 0 0
:bonedata
  begin
    id 1
    name LeftUpLegDummy
    direction 1 -2.30186e-007 -8.31532e-007
    length 2.93387
    axis 0 0 0 xyz
  end
  begin
    id 2
    name LeftUpLeg
    direction -1.82929e-007 -1 -1.48925e-009
    length 17.3336
    axis -3.48766 0.00143442 -0.000521554 xyz
    dof rx ry rz
  end
  begin
    id 3
    name LeftLeg
    direction -1.82929e-007 -1 -5.23717e-011
    length 14.9995
    axis 3.68178 -0.00654042 -0.000282425 xyz
    dof rx ry rz
  end
  begin
    id 4
    name LeftFoot
    direction 8.31532e-007 -4.54534e-011 1
    length 6.74421
    axis 1.87234e-006 4.66016e-005 -5.96866e-006 xyz
    dof rx ry rz
  end
  begin
    id 5
    name LeftToes
    direction 0.00818058 -0.00485161 0.999955
    length 3.85048
    axis 1.06247e-005 4.65869e-005 -5.96999e-006 xyz
    dof rx ry rz
  end
  begin
    id 6
    name SpineDummy
    direction -5.8607e-008 0.943407 -0.331637
    length 5.93572
    axis 0 0 0 xyz
  end
  begin
    id 7
    name Spine
    direction -1.04988e-007 0.999988 0.00495137
    length 10.1015
    axis -0.001389 0.000121417 6.61666e-006 xyz
    dof rx ry rz
  end
  begin
    id 8
    name Spine1
    direction 0 0 0
    length 0
    axis -0.001389 0.00012144 6.56766e-006 xyz
    dof rx ry rz
  end
  begin
    id 9
    name RightShoulderDummy
    direction -0.98348 0.17941 -0.0240696
    length 3.59882
    axis -0.001389 0.00012144 6.56766e-006 xyz
  end
  begin
    id 10
    name RightShoulder
    direction -0.978693 0.204882 0.0135597
    length 2.70001
    axis 0.215806 0.000203631 -0.00679732 xyz
    dof rx ry rz
  end
  begin
    id 11
    name RightArm
    direction -1 3.85509e-006 8.31394e-007
    length 10.2459
    axis -23.2009 -0.134239 -0.964098 xyz
    dof rx ry rz
  end
  begin
    id 12
    name RightForeArm
    direction -1 3.85569e-006 8.3129e-007
    length 8.16799
    axis -9.92322 0.0658061 0.17887 xyz
    dof rx ry rz
  end
  begin
    id 13
    name RightHand
    direction -0.992843 -0.0414604 0.112003
    length 5.28593
    axis -0.00960638 0.00330669 -0.185225 xyz
    dof rx ry rz
  end
  begin
    id 14
    name LeftShoulder1Dummy
    direction 0.983523 0.179172 -0.0240748
    length 3.59866
    axis -0.001389 0.00012144 6.56766e-006 xyz
  end
  begin
    id 15
    name LeftShoulder1
    direction 0.978627 0.205195 0.0135605
    length 2.70019
    axis -0.001389 0.00012144 6.57583e-006 xyz
    dof rx ry rz
  end
  begin
    id 16
    name LeftArm
    direction 1 3.51895e-006 -8.60188e-007
    length 10.2459
    axis -23.1894 0.134785 0.967513 xyz
    dof rx ry rz
  end
  begin
    id 17
    name LeftForeArm
    direction 1 3.51921e-006 -7.32029e-007
    length 8.16799
    axis -9.91835 -0.0656957 -0.177789 xyz
    dof rx ry rz
  end
  begin
    id 18
    name LeftHand
    direction 0.992938 -0.0411636 0.11126
    length 5.32135
    axis -0.00960237 -0.00340661 0.185177 xyz
    dof rx ry rz
  end
  begin
    id 19
    name HEadDummy
    direction 1.01974e-006 0.999861 -0.016675
    length 2.99946
    axis -0.001389 0.00012144 6.56766e-006 xyz
  end
  begin
    id 20
    name HEad
    direction -0.0222689 0.980941 0.193023
    length 5.12695
    axis -0.001389 0.00012144 6.56766e-006 xyz
    dof rx ry rz
  end
  begin
    id 21
    name RightUpLegDummy
    direction -1 2.30186e-007 8.31532e-007
    length 2.93387
    axis 0 0 0 xyz
  end
  begin
    id 22
    name RightUpLeg
    direction -1.82966e-007 -1 1.56832e-007
    length 17.3336
    axis -3.4909 -0.000906625 0.00028951 xyz
    dof rx ry rz
  end
  begin
    id 23
    name RightLeg
    direction -1.82786e-007 -1 -1.80317e-007
    length 14.9995
    axis 3.68513 0.0193739 -0.131021 xyz
    dof rx ry rz
  end
  begin
    id 24
    name RightFoot
    direction 8.31721e-007 -4.63324e-011 1
    length 6.74421
    axis 4.81691e-005 -0.120479 -0.188785 xyz
    dof rx ry rz
  end
  begin
    id 25
    name RightToes
    direction 0.00124746 -0.014064 0.9999
    length 3.85082
    axis 0.000481921 0.542163 -0.142575 xyz
    dof rx ry rz
  end
:hierarchy
  begin
    root LeftUpLegDummy SpineDummy RightUpLegDummy
    LeftUpLegDummy LeftUpLeg
    LeftUpLeg LeftLeg
    LeftLeg LeftFoot
    LeftFoot LeftToes
    SpineDummy Spine
    Spine Spine1
    Spine1 RightShoulderDummy LeftShoulder1Dummy HEadDummy
    RightShoulderDummy RightShoulder
    RightShoulder RightArm
    RightArm RightForeArm
    RightForeArm RightHand
    LeftShoulder1Dummy LeftShoulder1
    LeftShoulder1 LeftArm
    LeftArm LeftForeArm
    LeftForeArm LeftHand
    HEadDummy HEad
    RightUpLegDummy RightUpLeg
    RightUpLeg RightLeg
    RightLeg RightFoot
    RightFoot RightToes
  end

:SAMPLES-PER-SECOND 30
:FULLY-SPECIFIED
:DEGREES
123
root  -1.15214 34.0934 -5.01598 175.508 84.5532 171.52
LeftUpLeg  -11.3906 1.15801 4.81821
LeftLeg  34.6621 4.70336 2.81401
LeftFoot  -0.75946 0.000462783 0.0698169
LeftToes  -35.1675 7.65994e-007 1.12379e-007
Spine  4.29405 2.99138 -0.245825
Spine1  8.20178 6.67246 -1.08095
RightShoulder  0.0865035 0.0224569 -5.02646
RightArm  9.9104 23.3367 87.2389
RightForeArm  130.235 55.8069 164.631
RightHand  1.29588 -16.466 -8.56513
LeftShoulder1  0.0027348 -1.2023 -7.27743
LeftArm  -14.8348 14.4189 -65.0112
LeftForeArm  26.7971 -29.7099 -5.76786
LeftHand  0.117369 3.40115 3.56177
HEad  22.1224 5.35801 -4.86882
RightUpLeg  -9.97085 -10.7484 2.20326
RightLeg  15.7035 -2.67712 -0.5692
RightFoot  -3.47598 -0.0033776 0.266289
RightToes  -18.8311 -0.0732465 -0.166692
124
root  -1.11952 34.0821 -4.98517 175.608 84.0898 171.851
LeftUpLeg  -12.4105 0.933607 4.91128
LeftLeg  36.9119 4.34592 2.83732
LeftFoot  0.0366022 -5.06389e-005 0.158544
LeftToes  -37.1698 7.65994e-007 1.12379e-007
Spine  4.38154 3.10969 -0.247578
Spine1  8.38108 6.91784 -1.09044
RightShoulder  0.0851864 0.0422077 -5.12879
RightArm  9.93612 23.4132 87.3446
RightForeArm  129.978 55.9457 164.551
RightHand  1.28749 -16.5238 -8.47616
LeftShoulder1  0.00179901 -1.20214 -7.30548
LeftArm  -15.0604 14.9586 -65.0053
LeftForeArm  26.7915 -30.0551 -5.84938
LeftHand  0.119239 3.35635 3.67091
HEad  22.1397 6.12427 -4.79996
RightUpLeg  -9.72321 -10.8841 2.18586
RightLeg  15.8532 -2.98835 -0.643538
RightFoot  -3.73338 -0.00254391 0.299551
RightToes  -18.4765 -0.0731299 -0.164462
125
root  -1.08905 34.0662 -4.96708 176.002 83.5858 172.459
LeftUpLeg  -13.5584 1.09833 5.02879
LeftLeg  39.3219 3.8432 2.74616
LeftFoot  0.717123 -0.00141618 0.226285
LeftToes  -37.6893 7.65994e-007 1.12379e-007
Spine  4.46064 3.23698 -0.23453
Spine1  8.54637 7.17784 -1.06553
RightShoulder  0.0837882 0.0715234 -5.2618
RightArm  9.8804 23.5338 87.3745
RightForeArm  129.762 56.0972 164.463
RightHand  1.2803 -16.5473 -8.41434
LeftShoulder1  0.000939447 -1.20366 -7.23445
LeftArm  -15.3223 15.4621 -65.1722
LeftForeArm  26.8166 -30.5019 -5.95577
LeftHand  0.118642 3.38896 3.62647
HEad  22.1404 6.83887 -4.73337
RightUpLeg  -9.48366 -11.1385 2.18559
RightLeg  15.9756 -3.23608 -0.704103
RightFoot  -4.02494 -0.00196657 0.332906
RightToes  -18.0813 -0.0727245 -0.162953
126
root  -1.05629 34.0473 -4.96075 178.271 83.0051 174.852
LeftUpLeg  -14.7739 1.6843 5.40588
LeftLeg  41.5949 2.95647 2.29476
LeftFoot  1.00261 -0.000265569 0.2368
LeftToes  -36.0622 7.65994e-007 1.12379e-007
Spine  4.47796 3.33427 -0.159919
Spine1  8.60738 7.35452 -0.896295
RightShoulder  0.0822574 0.121233 -5.27668
RightArm  9.86346 23.6622 87.2554
RightForeArm  129.49 56.1669 164.422
RightHand  1.26448 -16.4843 -8.33966
LeftShoulder1  0.000167812 -1.20609 -7.05262
LeftArm  -15.7206 16.0344 -65.5641
LeftForeArm  27.098 -31.0024 -6.07606
LeftHand  0.119271 3.30458 3.6003
HEad  22.1606 7.57212 -4.644
RightUpLeg  -9.32896 -11.5833 2.39453
RightLeg  16.075 -3.40335 -0.746669
RightFoot  -4.30232 -0.000972149 0.359646
RightToes  -17.4383 -0.0719633 -0.161529
127
root  -1.01959 34.0339 -4.96818 179.79 82.3343 176.433
LeftUpLeg  -15.8173 2.69681 5.74719
LeftLeg  43.1474 1.99573 1.63644
LeftFoot  0.913861 0.00277415 0.21281
LeftToes  -32.6532 7.65994e-007 1.12379e-007
Spine  4.49871 3.38947 -0.0616254
Spine1  8.67693 7.44368 -0.678214
RightShoulder  0.0806839 0.178444 -5.42817
RightArm  10.0688 23.8748 87.3964
RightForeArm  129.175 56.318 164.334
RightHand  1.25919 -16.6637 -8.20907
LeftShoulder1  -0.00050419 -1.10143 -7.11756
LeftArm  -15.7872 16.438 -65.8489
LeftForeArm  26.8514 -31.3074 -6.15016
LeftHand  0.118982 3.37936 3.60084
HEad  22.0351 8.62728 -4.69151
RightUpLeg  -9.15708 -11.9691 2.52612
RightLeg  16.0341 -3.72256 -0.813794
RightFoot  -4.41216 0.000477298 0.390002
RightToes  -17.6594 -0.0710294 -0.160299
128
root  -0.985785 34.0365 -4.98697 179.751 81.6015 176.421
LeftUpLeg  -16.3078 4.14678 5.88543
LeftLeg  42.3403 1.97542 1.57378
LeftFoot  0.691482 0.00478683 0.199594
LeftToes  -29.3553 7.65994e-007 1.12379e-007
Spine  4.51459 3.48671 -0.0471965
Spine1  8.7153 7.63823 -0.638641
RightShoulder  0.0789917 0.226751 -5.49848
RightArm  10.3458 24.0249 87.6617
RightForeArm  128.668 56.5423 164.201
RightHand  1.23564 -16.8098 -7.97531
LeftShoulder1  -0.00106486 -1.11012 -7.13605
LeftArm  -15.7369 16.6858 -66.1259
LeftForeArm  26.5719 -31.2849 -6.14475
LeftHand  0.119357 3.44159 3.64703
HEad  21.975 9.7622 -4.54168
RightUpLeg  -8.97743 -12.1185 2.44725
RightLeg  15.9264 -4.25887 -0.9224
RightFoot  -4.48285 0.00237665 0.438339
RightToes  -17.5651 -0.0701057 -0.159376
129
root  -0.94266 34.0468 -5.02712 -179.874 80.6667 176.686
LeftUpLeg  -16.2535 5.6999 5.98304
LeftLeg  38.7303 3.15987 2.20923
LeftFoot  0.633618 0.005679 0.198561
LeftToes  -27.323 7.65994e-007 1.12379e-007
Spine  4.47781 3.48808 -0.0270422
Spine1  8.65411 7.62618 -0.575304
RightShoulder  0.0772089 0.243952 -5.56378
RightArm  10.9002 24.0992 88.1248
RightForeArm  128.256 56.7638 164.067
RightHand  1.19009 -16.8844 -7.63277
LeftShoulder1  -0.00150248 -1.05124 -7.13511
LeftArm  -15.6744 16.9177 -66.4776
LeftForeArm  26.4512 -31.1685 -6.11651
LeftHand  0.119912 3.41083 3.6484
HEad  21.9325 11.1414 -4.26423
RightUpLeg  -8.88406 -12.3717 2.40385
RightLeg  15.7733 -4.91238 -1.0498
RightFoot  -4.52486 0.00457278 0.493371
RightToes  -17.4622 -0.0693749 -0.158872
130
root  -0.895646 34.0619 -5.08961 -179.468 79.5421 176.885
LeftUpLeg  -15.6895 6.88695 5.95153
LeftLeg  32.7668 5.06547 2.80764
LeftFoot  1.27076 0.00181536 0.266165
LeftToes  -27.1713 7.65994e-007 1.12379e-007
Spine  4.40936 3.41544 -0.0158172
Spine1  8.53151 7.45535 -0.520054
RightShoulder  0.0753379 0.165093 -5.62612
RightArm  11.6761 24.1776 88.9099
RightForeArm  127.655 57.1307 163.842
RightHand  1.15462 -17.1241 -7.28508
LeftShoulder1  -0.00180537 -1.06609 -7.14206
LeftArm  -15.5079 17.1603 -66.7865
LeftForeArm  26.3004 -31.0423 -6.08597
LeftHand  0.11888 3.53738 3.63577
HEad  21.7991 12.8179 -3.97379
RightUpLeg  -8.8112 -12.461 2.33409
RightLeg  15.4993 -5.90814 -1.23225
RightFoot  -4.47682 0.0073687 0.566156
RightToes  -17.5477 -0.0690201 -0.158897
131
root  -0.839943 34.078 -5.19255 -179.193 78.3736 176.931
LeftUpLeg  -14.8487 8.09206 5.72878
LeftLeg  25.7592 6.83243 2.75942
LeftFoot  2.703 -0.0110498 0.468351
LeftToes  -26.8326 7.65994e-007 1.12379e-007
Spine  4.30621 3.32157 0.00459554
Spine1  8.34433 7.23359 -0.437514
RightShoulder  0.0715262 0.125576 -5.70401
RightArm  12.6428 24.3681 89.5891
RightForeArm  126.928 57.6131 163.538
RightHand  1.12592 -17.2677 -7.03249
LeftShoulder1  -0.00196181 -1.13786 -7.15961
LeftArm  -15.1237 17.5011 -67.0898
LeftForeArm  26.0439 -30.9783 -6.07056
LeftHand  0.11714 3.62261 3.54964
HEad  21.8638 14.837 -3.72703
RightUpLeg  -8.70005 -12.3818 2.17847
RightLeg  15.1702 -7.09743 -1.43648
RightFoot  -4.38068 0.0102448 0.645509
RightToes  -17.7405 -0.0692243 -0.159564
132
root  -0.778297 34.0919 -5.33383 -179.5 77.2607 176.373
LeftUpLeg  -14.1162 9.34091 5.18135
LeftLeg  19.3117 8.05733 2.24336
LeftFoot  4.84884 -0.0347166 0.819937
LeftToes  -25.0831 7.65994e-007 1.12379e-007
Spine  4.21542 3.2518 0.0168687
Spine1  8.18003 7.0624 -0.370601
RightShoulder  0.0685171 0.0748521 -5.75902
RightArm  13.8553 24.7754 90.2317
RightForeArm  125.859 58.1896 163.165
RightHand  1.10065 -17.3701 -6.8236
LeftShoulder1  -0.0019601 -1.05869 -7.22139
LeftArm  -14.5256 17.6503 -67.461
LeftForeArm  25.8356 -30.774 -6.02133
LeftHand  0.117812 3.55407 3.55242
HEad  22.0596 16.8704 -3.52943
RightUpLeg  -8.57521 -12.1846 1.82568
RightLeg  14.8727 -8.33526 -1.6402
RightFoot  -4.33764 0.0134731 0.73343
RightToes  -18.0527 -0.0708713 -0.160984
133
root  -0.723734 34.1095 -5.5098 -179.592 76.1899 176.031
LeftUpLeg  -13.7322 9.86754 4.69967
LeftLeg  14.8948 8.05357 1.58918
LeftFoot  7.80438 -0.0839538 1.23073
LeftToes  -23.9892 7.65994e-007 1.12379e-007
Spine  4.09414 3.2113 0.05759
Spine1  7.95415 6.95715 -0.255197
RightShoulder  0.0655523 0.157182 -5.94418
RightArm  14.872 24.9864 90.7631
RightForeArm  124.902 58.6176 162.88
RightHand  1.06363 -17.5844 -6.49647
LeftShoulder1  -0.00122121 -0.896985 -7.30655
LeftArm  -13.8689 17.8371 -67.8856
LeftForeArm  25.4799 -30.6398 -5.98918
LeftHand  0.115276 3.62467 3.39055
HEad  22.0619 19.036 -3.54157
RightUpLeg  -8.48833 -12.247 1.44526
RightLeg  14.6814 -9.27944 -1.79217
RightFoot  -4.22709 0.0151414 0.787958
RightToes  -18.5528 -0.0737377 -0.165085
